<?xml version="1.0" encoding="UTF-8"?>
<!DOCTYPE svg PUBLIC "-//W3C//DTD SVG 1.1//EN" "http://www.w3.org/Graphics/SVG/1.1/DTD/svg11.dtd">
<!-- Creator: CorelDRAW 2018 (64-Bit) -->
<svg xmlns="http://www.w3.org/2000/svg" xml:space="preserve" width="11in" height="8.5in" version="1.1" style="shape-rendering:geometricPrecision; text-rendering:geometricPrecision; image-rendering:optimizeQuality; fill-rule:evenodd; clip-rule:evenodd"
viewBox="0 0 11000 8500"
 xmlns:xlink="http://www.w3.org/1999/xlink">
 <defs>
  <style type="text/css">
   <![CDATA[
    .fil0 {fill:#282829}
   ]]>
  </style>
 </defs>
 <g id="Layer_x0020_1">
  <metadata id="CorelCorpID_0Corel-Layer"/>
  <path class="fil0" d="M8915.99 3713.62c-147.69,0 -267.43,-119.73 -267.43,-267.43 0,-147.69 119.74,-267.43 267.43,-267.43 147.7,0 267.43,119.73 267.43,267.43 0,147.69 -119.72,267.43 -267.42,267.43zm584.01 -267.43c0,-331.74 -276.6,-598.87 -611.76,-583.37 -300.15,13.89 -545.87,263 -555.94,563.3 -9.68,288.71 190.38,532.2 459.44,590.54l-213.98 284.83c-40.02,53.27 -29.28,128.89 23.98,168.91l79.06 59.39c53.28,40.01 128.89,29.27 168.91,-24l536.66 -714.35 -0.07 -0.05c71.16,-96.77 113.7,-215.87 113.7,-345.2z"/>
  <path class="fil0" d="M7006.77 3575.28l0 -209.91c0,-66.62 -54.01,-120.63 -120.63,-120.63l-149.87 0c-66.62,0 -120.63,54.01 -120.63,120.63l0 561.35c0,66.62 54.01,120.63 120.63,120.63l1363.97 0c66.63,0 120.64,-54.01 120.64,-120.63l0 -110.19c0,-66.62 -54.01,-120.63 -120.64,-120.63l-972.83 -0c-66.63,0 -120.64,-54.01 -120.63,-120.63z"/>
  <path class="fil0" d="M4432.48 3446.19c0,-147.69 119.72,-267.43 267.43,-267.43 147.7,0 267.43,119.73 267.43,267.43 0,147.69 -119.73,267.43 -267.43,267.43 -147.7,0 -267.43,-119.73 -267.43,-267.43zm1802 -201.45l-149.87 0c-66.61,0 -120.63,54.01 -120.63,120.63l0 209.91c0,66.62 -54.01,120.63 -120.63,120.63l-616.39 -0c36.17,-75.73 56.96,-160.16 56.96,-249.71 0,-331.74 -276.61,-598.88 -611.76,-583.37 -300.15,13.89 -545.87,263 -555.94,563.3 -9.68,288.72 190.38,532.2 459.44,590.54l-213.98 284.83c-40.02,53.27 -29.28,128.89 23.98,168.91l79.05 59.38c53.27,40.02 128.89,29.28 168.91,-23.99l344.41 -458.44 1256.44 0c66.63,0 120.64,-54.01 120.64,-120.63l0 -561.35c0,-66.62 -54.01,-120.63 -120.64,-120.63z"/>
  <path class="fil0" d="M2696.5 4051.59c0.13,-1.43 0.37,-2.81 0.49,-4.24l-0.1 0c-0.13,1.42 -0.26,2.82 -0.39,4.24z"/>
  <path class="fil0" d="M3984.62 3926.72c0,66.62 -54.01,120.63 -120.63,120.63l-1036.64 0 -236.32 322.89 -0.61 0c0.01,-0.01 0.01,-0 0.01,-0 -43.85,59.81 -98.28,111.9 -161.75,154.21 -16.18,10.79 -32.89,19.49 -49.99,27.15 -65.04,29.09 -137.17,38.35 -220.47,45.85 -293.2,26.45 -658.21,-276.03 -658.21,-609.15 0,-93.68 27.33,-218.27 65.44,-297.37 9.05,-18.78 31.17,-51.26 56.94,-86.61 39.19,-53.73 114.83,-65.19 168.49,-25.91l128.23 93.85c53.72,39.32 65.35,114.81 26.1,168.58 -11.15,15.29 -18.74,25.74 -19.75,27.29 -28.04,42.77 -41.71,95.81 -33.6,152.4 13.51,94.22 89.85,171.06 184.02,184.91 82.69,12.15 158.11,-21.93 204.68,-80.09l11.77 -16.1 325.3 -444.46 41.31 -56.45c39.35,-53.77 114.83,-65.45 168.6,-26.1l155.3 113.66 881.15 0c66.62,0 120.63,54.01 120.63,120.63l0 110.19z"/>
  <path class="fil0" d="M3948.5 3061.56c0,66.62 -54.01,120.63 -120.64,120.63l-141.69 0c-66.63,0 -120.63,-54.01 -120.63,-120.63l0 -110.19c0,-66.62 54,-120.63 120.63,-120.63l141.69 0c66.63,0 120.64,54.01 120.64,120.64l0 110.19z"/>
  <path class="fil0" d="M2978.31 3061.56c0,66.62 -54.01,120.63 -120.63,120.63l-141.7 0c-66.62,0 -120.63,-54.01 -120.63,-120.63l0 -110.19c0,-66.62 54.01,-120.63 120.63,-120.63l141.7 0c66.62,0 120.63,54.01 120.63,120.64l0 110.19z"/>
  <path class="fil0" d="M3463.41 3061.56c0,66.62 -54.01,120.63 -120.63,120.63l-141.69 0c-66.62,0 -120.64,-54.01 -120.64,-120.63l0 -110.19c0,-66.62 54.02,-120.63 120.64,-120.63l141.69 0c66.62,0 120.63,54.01 120.63,120.64l0 110.19z"/>
  <path class="fil0" d="M6355.12 4433.35c0,66.63 -54.01,120.64 -120.64,120.64l-141.69 0c-66.63,0 -120.63,-54.01 -120.63,-120.64l0 -110.18c0,-66.63 54,-120.64 120.63,-120.64l141.69 0c66.63,0 120.64,54.01 120.64,120.64l0 110.18z"/>
  <path class="fil0" d="M5384.93 4433.35c0,66.63 -54,120.64 -120.63,120.64l-141.69 0c-66.63,0 -120.64,-54.01 -120.64,-120.64l0 -110.18c0,-66.63 54.01,-120.64 120.64,-120.64l141.69 0c66.63,0 120.63,54.01 120.63,120.64l0 110.18z"/>
  <path class="fil0" d="M5870.02 4433.35c0,66.63 -54,120.64 -120.63,120.64l-141.69 0c-66.62,0 -120.64,-54.01 -120.64,-120.64l0 -110.18c0,-66.63 54.02,-120.64 120.64,-120.64l141.69 0c66.63,0 120.63,54.01 120.63,120.64l0 110.18z"/>
  <path class="fil0" d="M7405.85 4455.24c0,66.61 -54.01,120.63 -120.64,120.63l-141.69 0c-66.62,0 -120.63,-54.02 -120.63,-120.63l0 -110.19c0,-66.62 54,-120.63 120.63,-120.63l141.69 0c66.63,0 120.64,54.01 120.64,120.63l0 110.19z"/>
  <polygon class="fil0" points="1519.28,5232.4 1566.99,5232.4 1645.76,5499.94 1724.85,5232.4 1795.11,5232.4 1874.85,5499.94 1953.94,5232.4 2002.64,5232.4 1909.5,5543.34 1839.23,5543.34 1760.47,5276.7 1680.07,5543.34 1611.11,5543.34 "/>
  <path class="fil0" d="M2120.45 5357.6l194.78 0 0 -12.1c0,-29.13 -5.77,-48.91 -17.31,-59.35 -11.56,-10.44 -34.43,-15.66 -68.63,-15.66l-23.86 0c-33.98,0 -56.65,5.22 -67.98,15.66 -11.33,10.43 -16.99,30.21 -16.99,59.35l0 12.1zm85.62 189.88c-51.42,0 -87.37,-9.06 -107.85,-27.17 -20.48,-18.11 -30.72,-49.91 -30.72,-95.38l0 -73.82c0,-45.67 10.18,-77.56 30.56,-95.67 20.37,-18.11 56.16,-27.17 107.35,-27.17l23.86 0c51.42,0 87.37,9.06 107.85,27.17 20.48,18.11 30.72,50 30.72,95.67l0 46.96 -247.4 0.3c-0.22,3.14 -0.39,6.63 -0.49,10.47 -0.11,3.84 -0.16,9.21 -0.16,16.09 0,32.09 5.66,53.6 16.99,64.52 11.33,10.93 34.2,16.4 68.63,16.4l23.86 0c30.72,0 52.07,-3.99 64.06,-11.96 11.98,-7.98 18.96,-21.9 20.92,-41.79l52.94 0c-2.61,33.67 -14.6,57.98 -35.95,72.94 -21.36,14.96 -55.13,22.44 -101.31,22.44l-23.86 0z"/>
  <path class="fil0" d="M2517.69 5362.62l0 50.79c0,32.29 8.34,55.77 25.01,70.43 16.67,14.67 43.41,22 80.23,22 33.33,0 55.5,-5.42 66.51,-16.25 11,-10.83 16.51,-35.83 16.51,-75.01l0 -53.15c0,-39.37 -5.51,-64.46 -16.51,-75.29 -11,-10.83 -33.17,-16.25 -66.51,-16.25 -36.81,0 -63.56,7.34 -80.23,22 -16.67,14.67 -25.01,38.24 -25.01,70.72zm-50.65 180.72l0 -439.7 50.65 0 0 173.06c9.81,-17.14 23.05,-29.49 39.71,-37.07 16.67,-7.57 39.17,-11.36 67.48,-11.36 49.02,0 83.61,9.15 103.77,27.46 20.15,18.31 30.23,50.11 30.23,95.38l0 73.82c0,45.08 -10.08,76.77 -30.23,95.09 -20.16,18.3 -54.74,27.45 -103.77,27.45 -29.62,0 -53.16,-4.19 -70.59,-12.56 -17.43,-8.36 -30.29,-21.5 -38.57,-39.42l0 47.84 -48.7 0z"/>
  <path class="fil0" d="M2908.72 5413.41c0,32.29 8.34,55.77 25,70.43 16.67,14.67 43.41,22 80.23,22 33.33,0 55.5,-5.42 66.51,-16.25 11,-10.83 16.51,-35.83 16.51,-75.01l0 -53.15c0,-39.37 -5.51,-64.46 -16.51,-75.29 -11.01,-10.83 -33.17,-16.25 -66.51,-16.25 -36.83,0 -63.56,7.34 -80.23,22 -16.67,14.67 -25,38.24 -25,70.72l0 50.79zm-50.65 -181.02l48.69 0 0 48.42c8.27,-18.1 21.19,-31.39 38.73,-39.86 17.53,-8.47 41.01,-12.69 70.43,-12.69 49.03,0 83.61,9.15 103.77,27.46 20.14,18.31 30.23,50.11 30.23,95.38l0 73.82c0,45.08 -10.09,76.77 -30.23,95.09 -20.16,18.3 -54.75,27.45 -103.77,27.45 -28.33,0 -50.82,-3.8 -67.49,-11.37 -16.67,-7.58 -29.9,-19.93 -39.7,-37.06l0 163.3 -50.65 0 0 -429.94z"/>
  <path class="fil0" d="M3482.11 5414.59l0 -53.15c0,-39.17 -5.51,-64.12 -16.5,-74.85 -11,-10.73 -34.16,-16.09 -69.45,-16.09l-23.86 0c-35.08,0 -58.01,5.31 -68.8,15.95 -10.78,10.63 -16.17,35.63 -16.17,75l0 53.15c0,39.57 5.44,64.67 16.34,75.3 10.9,10.63 33.76,15.96 68.63,15.96l23.86 0c35.08,0 58.17,-5.42 69.28,-16.25 11.11,-10.83 16.67,-35.83 16.67,-75.01zm-109.16 132.89c-51.42,0 -87.38,-9.06 -107.85,-27.17 -20.48,-18.11 -30.72,-49.91 -30.72,-95.38l0 -73.82c0,-45.67 10.19,-77.56 30.56,-95.67 20.37,-18.11 56.15,-27.17 107.36,-27.17l23.86 0c51.41,0 87.37,9.06 107.85,27.17 20.47,18.11 30.71,50 30.71,95.67l0 73.82c0,45.68 -10.19,77.51 -30.56,95.53 -20.37,18.01 -56.16,27.02 -107.36,27.02l-23.86 0z"/>
  <path class="fil0" d="M3866.93 5414.59l0 -53.15c0,-39.17 -5.51,-64.12 -16.5,-74.85 -11.01,-10.73 -34.15,-16.09 -69.45,-16.09l-23.86 0c-35.07,0 -58,5.31 -68.79,15.95 -10.79,10.63 -16.18,35.63 -16.18,75l0 53.15c0,39.57 5.44,64.67 16.34,75.3 10.89,10.63 33.77,15.96 68.63,15.96l23.86 0c35.07,0 58.18,-5.42 69.29,-16.25 11.11,-10.83 16.67,-35.83 16.67,-75.01zm-109.16 132.89c-51.42,0 -87.37,-9.06 -107.85,-27.17 -20.48,-18.11 -30.71,-49.91 -30.71,-95.38l0 -73.82c0,-45.67 10.18,-77.56 30.55,-95.67 20.37,-18.11 56.16,-27.17 107.35,-27.17l23.86 0c51.42,0 87.37,9.06 107.85,27.17 20.48,18.11 30.72,50 30.72,95.67l0 73.82c0,45.68 -10.19,77.51 -30.56,95.53 -20.37,18.01 -56.16,27.02 -107.36,27.02l-23.86 0z"/>
  <path class="fil0" d="M4005.34 5450.91l51.63 0 0 7.09c0,19.1 6.54,32.24 19.61,39.43 13.07,7.18 39.33,10.78 78.76,10.78 44.23,0 71.46,-3.65 81.7,-10.93 10.24,-7.28 15.36,-21.35 15.36,-42.22 0,-20.28 -4.19,-33.81 -12.58,-40.61 -8.39,-6.79 -29.36,-10.98 -62.91,-12.55 -12.42,-0.6 -29.2,-1.18 -50.33,-1.78 -46.19,-1.18 -73.64,-4.03 -82.35,-8.56 -13.07,-6.5 -22.39,-15.35 -27.95,-26.58 -5.55,-11.22 -8.33,-27.37 -8.33,-48.43 0,-34.45 9.69,-57.78 29.09,-70 19.39,-12.19 62.09,-18.3 128.11,-18.3 51.2,0 85.89,5.81 104.09,17.42 18.19,11.61 27.29,32 27.29,61.12l-50.98 0 0 -2.94c0,-13.78 -6.59,-23.29 -19.77,-28.5 -13.18,-5.22 -39.38,-7.83 -78.6,-7.83 -37.91,0 -62.09,3.15 -72.55,9.45 -10.46,6.3 -15.69,19.49 -15.69,39.57 0,12.2 0.98,20.77 2.93,25.69 1.96,4.93 5.44,8.67 10.46,11.22 10.24,4.93 32.9,7.77 67.98,8.56 8.93,0.19 15.8,0.39 20.59,0.59 28.76,0.98 51.31,2.31 67.65,3.98 16.34,1.68 27.99,3.98 34.97,6.94 15.24,6.31 26.09,15.36 32.51,27.17 6.43,11.81 9.65,28.93 9.65,51.37 0,22.84 -3.16,40.16 -9.48,51.97 -6.31,11.81 -17.64,22.26 -33.98,31.31 -7.41,4.33 -19.5,7.43 -36.28,9.3 -16.79,1.87 -40.1,2.8 -69.94,2.8 -61,0 -101.37,-6.34 -121.08,-19.05 -19.72,-12.69 -29.58,-35.77 -29.58,-69.24l0 -8.28z"/>
  <path class="fil0" d="M4414.99 5543.34l0 -439.7 48.7 0 0 171.27c8.27,-15.94 21.57,-27.7 39.87,-35.29 18.3,-7.57 42.48,-11.36 72.55,-11.36 45.11,0 76.69,8.22 94.78,24.65 18.08,16.44 27.13,45.33 27.13,86.68l0 203.75 -50.99 0 0 -194.01c0,-32.48 -5.28,-53.84 -15.84,-64.08 -10.57,-10.24 -31.11,-15.35 -61.61,-15.35 -35.95,0 -62.26,7.38 -78.93,22.15 -16.67,14.76 -25,38.29 -25,70.57l0 180.72 -50.66 0z"/>
  <polygon class="fil0" points="4797.85,5543.34 4797.85,5479.26 4854.72,5479.26 4854.72,5543.34 "/>
  <path class="fil0" d="M5164.69 5547.48c-51.42,0 -87.37,-9.06 -107.85,-27.17 -20.48,-18.11 -30.71,-49.91 -30.71,-95.38l0 -73.82c0,-45.67 10.18,-77.56 30.55,-95.67 20.37,-18.11 56.16,-27.17 107.36,-27.17l23.86 0c48.58,0 83.61,8.41 105.07,25.25 21.46,16.83 32.63,44.44 33.5,82.82l-52.61 0.3c-1.1,-25.2 -7.41,-42.52 -18.96,-51.97 -11.55,-9.45 -33.88,-14.18 -67,-14.18l-23.86 0c-35.07,0 -58,5.31 -68.79,15.95 -10.79,10.63 -16.17,35.63 -16.17,75l0 53.15c0,39.57 5.44,64.67 16.33,75.3 10.9,10.63 33.77,15.96 68.63,15.96l23.86 0c33.56,0 56.27,-5.18 68.15,-15.51 11.87,-10.34 17.81,-29.18 17.81,-56.55l0 -5.32 52.61 0 0 5.9c0,40.57 -10.62,69.55 -31.87,86.97 -21.24,17.43 -56.59,26.13 -106.05,26.13l-23.86 0z"/>
  <path class="fil0" d="M5658.67 5414.59l0 -53.15c0,-39.17 -5.5,-64.12 -16.51,-74.85 -11,-10.73 -34.15,-16.09 -69.44,-16.09l-23.86 0c-35.08,0 -58.01,5.31 -68.79,15.95 -10.79,10.63 -16.19,35.63 -16.19,75l0 53.15c0,39.57 5.44,64.67 16.35,75.3 10.89,10.63 33.77,15.96 68.63,15.96l23.86 0c35.08,0 58.17,-5.42 69.29,-16.25 11.11,-10.83 16.66,-35.83 16.66,-75.01zm-109.16 132.89c-51.42,0 -87.37,-9.06 -107.85,-27.17 -20.48,-18.11 -30.72,-49.91 -30.72,-95.38l0 -73.82c0,-45.67 10.18,-77.56 30.56,-95.67 20.37,-18.11 56.15,-27.17 107.36,-27.17l23.86 0c51.42,0 87.37,9.06 107.85,27.17 20.47,18.11 30.72,50 30.72,95.67l0 73.82c0,45.68 -10.19,77.51 -30.56,95.53 -20.38,18.01 -56.15,27.02 -107.36,27.02l-23.86 0z"/>
  <path class="fil0" d="M5817.01 5543.34l0 -310.94 49.67 0 0 42.52c7.2,-15.94 19.23,-27.7 36.12,-35.29 16.88,-7.57 39.16,-11.36 66.84,-11.36 29.19,0 52.01,4.04 68.46,12.1 16.45,8.07 28.7,21.17 36.77,39.27 10.02,-18.1 23.26,-31.2 39.7,-39.27 16.45,-8.07 37.96,-12.1 64.55,-12.1 45.1,0 76.37,8.07 93.8,24.21 17.44,16.15 26.15,45.18 26.15,87.12l0 203.75 -50.99 0 0 -189.29c0,-34.63 -4.95,-57.32 -14.87,-68.06 -9.92,-10.73 -29.26,-16.09 -58.01,-16.09 -31.82,0 -54.97,7.34 -69.45,22 -14.49,14.67 -21.74,38.24 -21.74,70.72l0 180.72 -49.35 0 0 -210.55c0,-24.6 -4.96,-41.24 -14.87,-49.91 -9.91,-8.66 -28.81,-12.99 -56.7,-12.99 -32.68,0 -56.7,7.48 -72.06,22.44 -15.37,14.96 -23.05,38.39 -23.05,70.28l0 180.72 -50.97 0z"/>
  <polygon class="fil0" points="6752.81,5476.73 6752.81,5306.72 6787.53,5306.72 6852.89,5458.23 6917.59,5306.72 6952.57,5306.72 6952.57,5476.73 6931.56,5476.73 6931.56,5322.59 6865.7,5476.73 6839.69,5476.73 6773.82,5322.59 6773.82,5476.73 "/>
  <path class="fil0" d="M7013.74 5404.92l76.38 0 0 -4.69c0,-11.26 -2.28,-18.91 -6.8,-22.95 -4.53,-4.03 -13.5,-6.05 -26.91,-6.05l-9.35 0c-13.33,0 -22.21,2.02 -26.65,6.05 -4.45,4.04 -6.67,11.69 -6.67,22.95l0 4.69zm33.58 73.42c-20.17,0 -34.26,-3.51 -42.29,-10.51 -8.03,-7 -12.05,-19.3 -12.05,-36.87l0 -28.56c0,-17.66 3.99,-29.99 11.98,-36.99 7.99,-7 22.02,-10.51 42.09,-10.51l9.35 0c20.16,0 34.25,3.51 42.28,10.51 8.03,7 12.04,19.33 12.04,36.99l0.01 18.16 -97.01 0.11c-0.08,1.22 -0.15,2.58 -0.19,4.06 -0.04,1.49 -0.06,3.56 -0.06,6.23 0,12.4 2.22,20.72 6.66,24.94 4.44,4.22 13.41,6.33 26.91,6.33l9.35 0c12.04,0 20.41,-1.54 25.11,-4.63 4.7,-3.08 7.43,-8.47 8.21,-16.15l20.76 0c-1.03,13.02 -5.73,22.42 -14.1,28.2 -8.37,5.79 -21.62,8.69 -39.72,8.69l-9.35 0z"/>
  <path class="fil0" d="M7148.84 5476.73l0 -120.22 19.09 0 0 16.44c3.24,-6.17 8.46,-10.72 15.63,-13.65 7.18,-2.93 16.66,-4.4 28.45,-4.4 17.68,0 30.07,3.19 37.16,9.54 7.09,6.35 10.64,17.52 10.64,33.51l0 78.78 -19.99 0 0 -75c0,-12.57 -2.07,-20.82 -6.21,-24.79 -4.14,-3.96 -12.2,-5.94 -24.16,-5.94 -14.09,0 -24.41,2.87 -30.94,8.62 -6.54,5.75 -9.8,14.82 -9.8,27.23l0 69.88 -19.86 0z"/>
  <path class="fil0" d="M7308.8 5330.35l0 -23.63 21.01 0 0 28.54c0,5.79 -1.81,10.25 -5.45,13.37 -3.63,3.11 -8.81,4.69 -15.56,4.69l0 -10.05c3.08,-0.24 5.27,-0.96 6.59,-2.18 1.32,-1.22 1.98,-3.16 1.98,-5.83l0 -4.9 -8.58 0z"/>
  <path class="fil0" d="M7379.71 5441l20.24 0 0 2.74c0,7.38 2.57,12.45 7.7,15.23 5.12,2.78 15.42,4.17 30.87,4.17 17.34,0 28.01,-1.4 32.03,-4.22 4.02,-2.81 6.02,-8.26 6.02,-16.33 0,-7.84 -1.65,-13.07 -4.93,-15.69 -3.29,-2.63 -11.52,-4.25 -24.68,-4.86 -4.86,-0.22 -11.43,-0.45 -19.73,-0.68 -18.11,-0.45 -28.87,-1.56 -32.29,-3.31 -5.12,-2.51 -8.78,-5.93 -10.95,-10.27 -2.19,-4.34 -3.27,-10.59 -3.27,-18.73 0,-13.32 3.79,-22.33 11.4,-27.06 7.6,-4.72 24.35,-7.09 50.23,-7.09 20.07,0 33.67,2.25 40.81,6.74 7.13,4.49 10.7,12.37 10.7,23.65l-19.99 0 0 -1.16c0,-5.32 -2.59,-9 -7.76,-11.01 -5.16,-2.02 -15.44,-3.03 -30.81,-3.03 -14.87,0 -24.35,1.22 -28.45,3.66 -4.1,2.43 -6.15,7.53 -6.15,15.3 0,4.72 0.39,8.03 1.16,9.94 0.76,1.89 2.13,3.35 4.09,4.33 4.03,1.9 12.91,3.01 26.66,3.31 3.51,0.08 6.19,0.15 8.07,0.22 11.28,0.38 20.12,0.91 26.52,1.55 6.42,0.65 10.98,1.54 13.72,2.68 5.98,2.44 10.22,5.94 12.75,10.51 2.52,4.57 3.78,11.19 3.78,19.87 0,8.83 -1.24,15.53 -3.72,20.11 -2.48,4.56 -6.92,8.59 -13.33,12.09 -2.91,1.68 -7.65,2.87 -14.22,3.59 -6.57,0.72 -15.72,1.09 -27.41,1.09 -23.93,0 -39.74,-2.46 -47.48,-7.36 -7.73,-4.92 -11.59,-13.84 -11.59,-26.78l0 -3.19z"/>
  <path class="fil0" d="M7626.85 5362.9c0,-21.77 4.68,-36.93 14.03,-45.45 9.35,-8.52 25.86,-12.78 49.52,-12.78l22.31 0c23.49,0 39.97,3.68 49.45,11.02 9.48,7.35 14.22,19.81 14.22,37.38l0 7.43 -21.78 0 0 -4.68c0,-12.85 -2.95,-21.65 -8.85,-26.37 -5.89,-4.72 -17.42,-7.08 -34.6,-7.08l-14.73 0c-11.53,0 -19.93,0.63 -25.18,1.88 -5.26,1.26 -9.64,3.37 -13.13,6.34 -3.51,2.89 -5.96,6.68 -7.37,11.37 -1.41,4.68 -2.12,13.22 -2.12,25.63l0 48.41c0,12.33 0.7,20.83 2.12,25.52 1.41,4.68 3.86,8.46 7.37,11.36 3.5,2.97 7.75,5.08 12.74,6.33 5,1.26 13.52,1.89 25.56,1.89l14.74 0c17.6,0 29.3,-2.48 35.11,-7.43 5.8,-4.94 8.71,-14.43 8.71,-28.43 0,-2.13 -0.02,-3.77 -0.07,-4.91 -0.04,-1.13 -0.1,-2.2 -0.19,-3.19l21.66 0 0 11.19c0,18.87 -4.59,32.01 -13.78,39.39 -9.19,7.38 -25.82,11.08 -49.91,11.08l-22.3 0c-23.67,0 -40.17,-4.26 -49.53,-12.79 -9.35,-8.52 -14.03,-23.67 -14.03,-45.44l0 -57.66z"/>
  <polygon class="fil0" points="7811.94,5476.73 7811.94,5306.72 7831.8,5306.72 7831.8,5476.73 "/>
  <path class="fil0" d="M7967.04 5426.95l0 -20.56c0,-15.15 -2.16,-24.8 -6.48,-28.94 -4.31,-4.15 -13.38,-6.22 -27.23,-6.22l-9.35 0c-13.75,0 -22.75,2.06 -26.98,6.17 -4.22,4.11 -6.35,13.78 -6.35,29l0 20.56c0,15.3 2.14,25 6.41,29.12 4.27,4.11 13.23,6.16 26.91,6.16l9.36 0c13.76,0 22.81,-2.09 27.16,-6.28 4.35,-4.19 6.54,-13.85 6.54,-29zm-42.8 51.38c-20.17,0 -34.26,-3.51 -42.29,-10.51 -8.03,-7 -12.04,-19.3 -12.04,-36.87l0 -28.56c0,-17.66 3.99,-29.99 11.98,-36.99 7.99,-7 22.02,-10.51 42.09,-10.51l9.36 0c20.16,0 34.25,3.51 42.28,10.51 8.03,7 12.04,19.33 12.04,36.99l0 28.56c0,17.65 -4,29.96 -11.98,36.93 -7.98,6.97 -22.02,10.45 -42.09,10.45l-9.35 0z"/>
  <path class="fil0" d="M8012.31 5371.69l0 -15.18 16.53 0 0 -27.06 19.98 0 0 27.06 66.12 0 0 15.18 -66.12 0 0 66.22c0,9.44 1.73,15.85 5.19,19.24 3.46,3.39 10.06,5.08 19.8,5.08 9.65,0 16.17,-1.63 19.55,-4.91 3.37,-3.27 5.05,-9.74 5.05,-19.41l0 -3.55 20.24 0 0 1.04c0,16.9 -3.13,28.28 -9.42,34.14 -6.27,5.86 -19.32,8.8 -39.14,8.8 -15.46,0 -26.2,-3.11 -32.22,-9.31 -6.02,-6.2 -9.03,-17.41 -9.03,-33.62l0 -63.71 -16.53 0z"/>
  <path class="fil0" d="M8157.28 5476.73l0 -170.01 19.11 0 0 66.22c3.24,-6.17 8.44,-10.72 15.62,-13.65 7.18,-2.93 16.65,-4.4 28.44,-4.4 17.69,0 30.07,3.19 37.16,9.54 7.1,6.35 10.64,17.52 10.64,33.51l0 78.78 -19.99 0 0 -75c0,-12.57 -2.07,-20.82 -6.22,-24.79 -4.15,-3.96 -12.2,-5.94 -24.15,-5.94 -14.09,0 -24.41,2.86 -30.94,8.56 -6.53,5.72 -9.81,14.8 -9.81,27.29l0 69.88 -19.86 0z"/>
  <path class="fil0" d="M8310.58 5476.73l0 -120.22 19.86 0 0 120.22 -19.86 0zm0 -149.91l0 -20.1 19.86 0 0 20.1 -19.86 0z"/>
  <path class="fil0" d="M8374.06 5476.73l0 -120.22 19.09 0 0 16.44c3.25,-6.17 8.46,-10.72 15.63,-13.65 7.17,-2.93 16.65,-4.4 28.44,-4.4 17.69,0 30.08,3.19 37.17,9.54 7.09,6.35 10.64,17.52 10.64,33.51l0 78.78 -20 0 0 -75c0,-12.57 -2.07,-20.82 -6.21,-24.79 -4.15,-3.96 -12.2,-5.94 -24.15,-5.94 -14.09,0 -24.41,2.87 -30.94,8.62 -6.54,5.75 -9.81,14.82 -9.81,27.23l0 69.88 -19.86 0z"/>
  <path class="fil0" d="M8620.24 5426.49l0 -19.64c0,-12.56 -3.27,-21.67 -9.79,-27.34 -6.54,-5.67 -17.03,-8.51 -31.46,-8.51 -13.07,0 -21.81,2.11 -26.21,6.34 -4.4,4.22 -6.59,13.91 -6.59,29.06l0 20.56c0,15.07 2.19,24.72 6.59,28.94 4.41,4.22 13.14,6.33 26.21,6.33 14.43,0 24.92,-2.84 31.46,-8.5 6.52,-5.67 9.79,-14.75 9.79,-27.23zm19.87 -69.99l0 118.85c0,17.67 -3.89,29.97 -11.66,36.94 -7.77,6.97 -21.44,10.45 -41,10.45l-9.23 0c-17.59,0 -30.44,-2.85 -38.57,-8.56 -8.12,-5.71 -12.72,-15.15 -13.83,-28.32l20.37 0c0.85,7.68 3.52,13.03 8.01,16.04 4.49,3.01 12.58,4.52 24.29,4.52l8.97 0c11.79,0 20.2,-1.72 25.24,-5.13 5.04,-3.43 7.56,-9.02 7.56,-16.79l0 -24.89c-3.74,6.63 -8.89,11.4 -15.43,14.34 -6.53,2.93 -15.4,4.39 -26.59,4.39 -19.21,0 -32.75,-3.54 -40.61,-10.63 -7.85,-7.07 -11.79,-19.33 -11.79,-36.76l0 -28.56c0,-17.5 3.93,-29.8 11.79,-36.88 7.86,-7.08 21.4,-10.62 40.61,-10.62 11.54,0 20.74,1.64 27.62,4.91 6.88,3.28 11.94,8.41 15.19,15.42l0 -18.72 19.09 0z"/>
  <path class="fil0" d="M8771.55 5421.36l21.27 0 0 3.2c0,10.12 0.85,17.57 2.56,22.37 1.71,4.79 4.53,8.19 8.46,10.16 3.09,1.52 7.82,2.61 14.24,3.25 6.4,0.64 19.59,0.96 39.59,0.96 10.84,0 19.26,-0.62 25.24,-1.88 5.99,-1.25 10.43,-3.29 13.33,-6.1 1.63,-1.53 2.82,-4.11 3.58,-7.77 0.77,-3.65 1.16,-8.6 1.16,-14.85 0.01,-12.63 -1.43,-20.56 -4.29,-23.8 -2.87,-3.23 -8.52,-5.15 -16.98,-5.76l-58.81 -4.11c-17.6,-1.22 -29.78,-5.14 -36.52,-11.75 -6.75,-6.64 -10.12,-17.79 -10.12,-33.46 0,-9.89 1.11,-17.85 3.33,-23.87 2.22,-6.01 5.8,-10.99 10.76,-14.95 3.86,-3.05 9.23,-5.2 16.15,-6.45 6.91,-1.26 19.13,-1.89 36.65,-1.89l6.8 0c19.56,0 33.33,0.84 41.32,2.52 7.98,1.67 14.67,4.56 20.04,8.68 3.68,2.74 6.39,6.64 8.15,11.7 1.75,5.06 2.62,11.36 2.62,18.9 0,2.21 -0.02,3.89 -0.06,5.08 -0.04,1.18 -0.11,2.22 -0.19,3.15l-21.27 0 0 -4.23c0,-6.24 -0.41,-11.02 -1.22,-14.33 -0.81,-3.31 -2.12,-5.76 -3.91,-7.36 -2.65,-2.36 -7.37,-4.02 -14.16,-4.97 -6.79,-0.96 -19.67,-1.43 -38.63,-1.43 -19.65,0 -31.99,1.98 -37.03,5.93 -5.04,3.96 -7.56,11.88 -7.56,23.75 0,9.74 1.65,16.46 4.94,20.15 3.29,3.69 9.63,5.89 19.03,6.57l59.96 4.45c15.72,1.22 26.73,5.09 33.06,11.59 6.33,6.52 9.48,17.38 9.48,32.6 0,11.11 -0.81,19.46 -2.44,25.07 -1.62,5.59 -4.31,10.25 -8.07,13.98 -4.61,4.65 -10.83,7.89 -18.63,9.76 -7.82,1.86 -22.07,2.8 -42.74,2.8l-9.48 0c-17.6,0 -30.06,-0.81 -37.36,-2.4 -7.3,-1.61 -13.39,-4.37 -18.26,-8.34 -4.78,-3.65 -8.31,-8.6 -10.57,-14.84 -2.26,-6.25 -3.39,-14.16 -3.39,-23.76l0 -8.33z"/>
  <path class="fil0" d="M8950.22 5371.69l0 -15.18 16.53 0 0 -27.06 19.99 0 0 27.06 66.12 0 0 15.18 -66.12 0 0 66.22c0,9.44 1.72,15.85 5.18,19.24 3.46,3.39 10.06,5.08 19.8,5.08 9.65,0 16.17,-1.63 19.55,-4.91 3.37,-3.27 5.06,-9.74 5.06,-19.41l0 -3.55 20.25 0 0 1.04c0,16.9 -3.14,28.28 -9.42,34.14 -6.28,5.86 -19.33,8.8 -39.15,8.8 -15.45,0 -26.2,-3.11 -32.22,-9.31 -6.02,-6.2 -9.03,-17.41 -9.03,-33.62l0 -63.71 -16.53 0z"/>
  <path class="fil0" d="M9186.81 5426.95l0 -20.56c0,-15.15 -2.17,-24.8 -6.48,-28.94 -4.31,-4.15 -13.39,-6.22 -27.23,-6.22l-9.35 0c-13.75,0 -22.74,2.06 -26.97,6.17 -4.23,4.11 -6.35,13.78 -6.35,29l0 20.56c0,15.3 2.14,25 6.41,29.12 4.28,4.11 13.24,6.16 26.91,6.16l9.36 0c13.76,0 22.81,-2.09 27.17,-6.28 4.35,-4.19 6.54,-13.85 6.54,-29zm-42.8 51.38c-20.16,0 -34.26,-3.51 -42.28,-10.51 -8.03,-7 -12.05,-19.3 -12.05,-36.87l0 -28.56c0,-17.66 3.99,-29.99 11.99,-36.99 7.99,-7 22.02,-10.51 42.08,-10.51l9.36 0c20.16,0 34.25,3.51 42.29,10.51 8.03,7 12.04,19.33 12.04,36.99l0.01 28.56c0,17.65 -4.01,29.96 -12,36.93 -7.98,6.97 -22.01,10.45 -42.08,10.45l-9.36 0z"/>
  <path class="fil0" d="M9245.29 5476.73l0 -120.22 19.34 0 0 16.44c2.83,-6.24 7.22,-10.81 13.2,-13.7 5.98,-2.89 13.93,-4.35 23.83,-4.35 14.69,0 25.02,3.17 30.95,9.48 5.93,6.31 8.91,17.5 8.91,33.57l0 0.91 -20.13 0 0 -3.54c0,-9.59 -1.7,-16.05 -5.12,-19.36 -3.41,-3.31 -9.87,-4.97 -19.35,-4.97 -11.1,0 -19.13,2.8 -24.09,8.39 -4.95,5.59 -7.43,14.75 -7.43,27.46l0 69.88 -20.11 0z"/>
  <path class="fil0" d="M9385.64 5404.92l76.38 0 0 -4.69c0,-11.26 -2.27,-18.91 -6.8,-22.95 -4.52,-4.03 -13.5,-6.05 -26.91,-6.05l-9.35 0c-13.32,0 -22.2,2.02 -26.65,6.05 -4.44,4.04 -6.67,11.69 -6.67,22.95l0 4.69zm33.57 73.42c-20.16,0 -34.25,-3.51 -42.28,-10.51 -8.03,-7 -12.05,-19.3 -12.05,-36.87l0 -28.56c0,-17.66 3.99,-29.99 11.98,-36.99 7.99,-7 22.02,-10.51 42.09,-10.51l9.36 0c20.16,0 34.25,3.51 42.28,10.51 8.04,7 12.06,19.33 12.06,36.99l0 18.16 -97.01 0.11c-0.07,1.22 -0.15,2.58 -0.19,4.06 -0.05,1.49 -0.07,3.56 -0.07,6.23 0.01,12.4 2.22,20.72 6.66,24.94 4.45,4.22 13.41,6.33 26.91,6.33l9.36 0c12.05,0 20.41,-1.54 25.11,-4.63 4.7,-3.08 7.43,-8.47 8.2,-16.15l20.76 0c-1.03,13.02 -5.73,22.42 -14.1,28.2 -8.37,5.79 -21.61,8.69 -39.72,8.69l-9.35 0z"/>
  <path class="fil0" d="M1615.89 2962.31l24.03 0c15.57,0 25.26,-0.67 29.16,-1.98 3.85,-1.31 6.93,-3.59 9.09,-6.81 2.21,-3.22 3.29,-7.26 3.29,-12.09 0,-5.43 -1.46,-9.77 -4.34,-13.14 -2.88,-3.33 -6.96,-5.43 -12.2,-6.29 -2.66,-0.38 -10.56,-0.56 -23.69,-0.56l-25.34 0 0 40.87zm-32.56 92.75l0 -160.79 68.37 0c17.19,0 29.68,1.46 37.47,4.34 7.82,2.88 14.03,8.01 18.71,15.38 4.68,7.41 7.04,15.83 7.04,25.34 0,12.09 -3.52,22.05 -10.59,29.91 -7.07,7.86 -17.63,12.8 -31.7,14.86 7,4.08 12.76,8.57 17.29,13.47 4.57,4.91 10.7,13.63 18.41,26.13l19.61 31.37 -38.81 0 -23.28 -35.11c-8.34,-12.46 -14.07,-20.32 -17.18,-23.58 -3.07,-3.22 -6.33,-5.46 -9.77,-6.66 -3.48,-1.2 -8.94,-1.8 -16.43,-1.8l-6.59 0 0 67.15 -32.56 0z"/>
  <path class="fil0" d="M1647.81 3104.69c-69.66,0 -126.13,-56.47 -126.13,-126.13 0,-69.66 56.47,-126.13 126.13,-126.13 69.66,0 126.13,56.47 126.13,126.13 0,69.66 -56.47,126.13 -126.13,126.13zm0 -273.94c-81.64,0 -147.81,66.19 -147.81,147.82 0,81.63 66.18,147.81 147.81,147.81 81.63,0 147.81,-66.18 147.81,-147.81 0,-81.64 -66.18,-147.82 -147.81,-147.82z"/>
  <path class="fil0" d="M6523.52 5669.26l0 0c-11.13,0 -20.16,-9.02 -20.16,-20.16l0 -491.87c0,-11.13 9.03,-20.16 20.16,-20.16l0 0c11.13,0 20.16,9.02 20.16,20.16l0 491.87c0,11.13 -9.02,20.16 -20.16,20.16z"/>
 </g>
</svg>
